<?xml version="1.0" encoding="utf-8"?>
<!-- Generator: Adobe Illustrator 16.0.0, SVG Export Plug-In . SVG Version: 6.00 Build 0)  -->
<!DOCTYPE svg PUBLIC "-//W3C//DTD SVG 1.1//EN" "http://www.w3.org/Graphics/SVG/1.1/DTD/svg11.dtd">
<svg version="1.1" id="Layer_1" xmlns="http://www.w3.org/2000/svg" xmlns:xlink="http://www.w3.org/1999/xlink" x="0px" y="0px"
	 width="585px" height="651.818px" viewBox="0 0 585 651.818" enable-background="new 0 0 585 651.818" xml:space="preserve">
	<!--  <defs>
        <filter id="drop-shadow">
            <feGaussianBlur in="SourceAlpha" stdDeviation="1" result="blur"></feGaussianBlur>
			<feOffset dy="2" dx="3"></feOffset>
			<feComposite in2="SourceAlpha" operator="arithmetic"  result="shadowDiff"></feComposite>
			
           <feFlood flood-color="#c3c3c3" flood-opacity="0.5"></feFlood>
		   <feComposite in2="shadowDiff" operator="in"></feComposite>
		   <feComposite in2="SourceGraphic" operator="over" result="firstfilter"></feComposite>
          
          
          <feGaussianBlur in="firstfilter" stdDeviation="2" result="blur2"></feGaussianBlur>
			<feOffset dy="-2" dx="-3"></feOffset>
			<feComposite in2="firstfilter" operator="arithmetic" result="shadowDiff"></feComposite>
			
           <feFlood flood-color="#c33c3c" flood-opacity="1"></feFlood>
			<feComposite in2="shadowDiff" operator="in"></feComposite>
			<feComposite in2="firstfilter" operator="over"></feComposite>
        </filter>
    </defs> -->
<g>
	<g>
		<path fill="#ffffff" filter="" d="M293.129,3.282c1.376,0,2.747,0.269,3.708,0.819c28.879,16.518,57.603,33.307,86.372,50.016
			c23.591,13.702,47.156,27.449,70.803,41.057c24.496,14.098,49.087,28.031,73.614,42.076c14.347,8.215,28.651,16.503,42.969,24.77
			c3.026,1.747,3.991,4.262,3.986,7.86c-0.122,95.661-0.117,191.323-0.13,286.985c-0.001,9.164-0.072,18.33,0.082,27.492
			c0.061,3.602-1.37,5.623-4.542,7.416c-21.022,11.875-41.924,23.969-62.85,36.016c-20.075,11.559-40.147,23.125-60.196,34.727
			c-22.615,13.088-45.18,26.258-67.809,39.318c-18.336,10.582-36.764,21.004-55.095,31.596
			c-10.437,6.029-20.759,12.258-30.967,18.297c-14.841-8.684-29.757-17.508-44.767-26.168c-13.459-7.766-27.066-15.27-40.523-23.035
			c-15.023-8.672-29.931-17.545-44.926-26.268c-24.711-14.371-49.41-28.766-74.194-43.012
			c-18.21-10.467-36.556-20.697-54.822-31.066c-6.462-3.668-13.026-7.199-19.19-11.32c-1.676-1.121-2.855-4.145-2.913-6.33
			c-0.294-11.156-0.149-22.326-0.149-33.49c-0.007-93.83,0.015-187.66-0.108-281.489c-0.005-3.966,1.595-6.037,4.741-7.854
			c20.178-11.649,40.275-23.438,60.445-35.1c15.9-9.195,31.887-18.241,47.8-27.415c25.06-14.447,50.07-28.979,75.136-43.416
			c22.361-12.878,44.782-25.651,67.146-38.524c7.576-4.361,14.939-9.115,22.669-13.178C290.4,3.545,291.768,3.282,293.129,3.282
			 M543.581,158.515c0.949,0,1.952-0.262,2.919-0.344c0.064-0.395,0.129-0.79,0.193-1.186
			c-82.769-47.771-165.538-95.542-249.239-143.851c-0.197,2.801-0.424,4.529-0.426,6.258c-0.028,21.326-0.033,42.653-0.023,63.979
			c0.004,8.164-0.076,16.333,0.213,24.488c0.054,1.532,1.43,4.058,2.62,4.341c8.222,1.957,16.546,3.491,24.854,5.068
			c19.237,3.649,38.485,7.241,57.727,10.865c19.568,3.685,39.12,7.459,58.707,11.046c16.796,3.075,33.633,5.928,50.447,8.909
			c5.388,0.955,10.775,1.927,16.134,3.03c11.699,2.408,23.373,4.936,35.076,7.32C543.043,158.493,543.311,158.515,543.581,158.515
			 M39.349,158.638c2.315-0.198,4.675-0.178,6.938-0.636c6.986-1.417,13.9-3.208,20.907-4.503
			c11.89-2.196,23.854-3.999,35.743-6.196c18.909-3.494,37.782-7.181,56.672-10.776c5.709-1.086,11.434-2.095,17.135-3.218
			c12.031-2.37,24.03-4.908,36.082-7.162c11.735-2.195,23.545-3.996,35.277-6.204c12.53-2.359,24.986-5.121,37.528-7.41
			c2.851-0.521,3.597-1.776,3.589-4.264c-0.021-6.495,0.023-12.99,0.018-19.484c-0.021-23.481-0.067-46.963-0.059-70.443
			c0.001-2.187-0.17-4.186-1.802-4.186c-0.568,0-1.312,0.242-2.288,0.802c-19.34,11.097-38.623,22.29-57.901,33.492
			c-22.551,13.104-45.048,26.303-67.622,39.367c-18.455,10.681-36.986,21.229-55.488,31.829
			c-15.202,8.709-30.428,17.379-45.607,26.127c-6.51,3.75-12.928,7.656-19.388,11.491C39.171,157.722,39.26,158.18,39.349,158.638
			 M498.416,436.37c0.035,0,0.066-0.006,0.094-0.018c1.028-0.43,2.176-1.508,2.484-2.557c1.167-3.965,2.036-8.018,2.985-12.045
			c3.042-12.898,5.979-25.824,9.126-38.697c4.403-18.016,8.941-36,13.46-53.987c1.292-5.143,2.767-10.238,4.073-15.377
			c2.121-8.344,4.208-16.697,6.244-25.062c2.271-9.331,4.435-18.689,6.711-28.02c2.313-9.479,4.701-18.939,7.065-28.406
			c2.285-9.15,4.604-18.293,6.867-27.449c2.806-11.354,5.567-22.72,8.544-34.877c-88.06-16.559-175.499-33-264.099-49.66
			c0.684,2.379,0.742,3.235,1.142,3.88c12.036,19.384,24.116,38.741,36.169,58.115c16.273,26.159,32.525,52.331,48.795,78.493
			c20.979,33.732,41.96,67.462,62.946,101.189c15.034,24.162,30.071,48.324,45.153,72.457
			C496.688,435.168,497.905,436.37,498.416,436.37 M92.225,436.956c64.081-105.01,128.161-210.018,192.696-315.771
			c-1.744-0.15-2.919-0.423-3.92-0.423c-0.265,0-0.518,0.019-0.765,0.064c-11.266,2.076-22.518,4.225-33.762,6.414
			c-11.875,2.312-23.719,4.786-35.608,7.013c-11.896,2.227-23.854,4.112-35.741,6.371c-11.56,2.197-23.037,4.824-34.601,6.995
			c-12.23,2.296-24.526,4.246-36.782,6.41c-5.228,0.923-10.424,2.022-15.641,3.012c-13.197,2.502-26.406,4.939-39.593,7.495
			c-8.137,1.577-16.265,3.223-24.329,5.119c-1.066,0.251-2.414,2.158-2.443,3.328c-0.054,2.087,0.73,4.216,1.287,6.294
			c2.264,8.465,4.62,16.906,6.857,25.379c2.451,9.28,4.811,18.585,7.207,27.88c2.188,8.485,4.371,16.972,6.556,25.457
			c2.104,8.173,4.167,16.356,6.323,24.515c2.323,8.787,4.787,17.538,7.094,26.33c2.266,8.631,4.368,17.305,6.621,25.942
			c2.34,8.969,4.776,17.912,7.166,26.869c2.428,9.1,4.861,18.195,7.27,27.299c2.117,8.002,4.221,16.006,6.298,24.018
			c2.024,7.809,4.009,15.625,6.012,23.438C91.025,436.589,91.625,436.772,92.225,436.956 M96.405,444.425
			c133.431,0,265.011,0,397.34,0c-66.959-107.67-133.438-214.568-200.55-322.484C227.335,229.868,162.268,336.495,96.405,444.425
			 M19.605,480.638c21.597-11.268,42.375-22.063,63.058-33.041c1.009-0.535,1.808-2.768,1.609-4.039
			c-0.633-4.068-1.734-8.07-2.74-12.078c-2.055-8.182-4.116-16.365-6.263-24.523c-2.354-8.947-4.833-17.861-7.21-26.803
			c-2.38-8.951-4.688-17.922-7.053-26.877c-2.199-8.33-4.465-16.643-6.639-24.979c-2.255-8.646-4.387-17.324-6.658-25.966
			c-2.273-8.651-4.705-17.262-6.973-25.914c-2.393-9.125-4.662-18.281-7.006-27.419c-2.262-8.813-4.529-17.625-6.836-26.426
			c-1.955-7.459-3.971-14.902-5.961-22.353c-0.442,0.027-0.886,0.055-1.329,0.082C19.605,293.517,19.605,386.731,19.605,480.638
			 M566.067,480.327c0.317-2.061,0.909-4.121,0.912-6.18c0.101-87.977,0.154-175.951,0.178-263.927
			c0.001-2.109-0.396-4.219-0.607-6.328c-0.419-0.036-0.838-0.072-1.257-0.108c-2.069,8.46-4.15,16.918-6.207,25.382
			c-2.15,8.85-4.243,17.714-6.427,26.555c-2.379,9.634-4.868,19.241-7.245,28.875c-2.185,8.853-4.234,17.737-6.434,26.586
			c-2.397,9.641-4.942,19.247-7.341,28.887c-2.161,8.691-4.17,17.422-6.322,26.117c-2.348,9.484-4.815,18.938-7.173,28.42
			c-2.279,9.166-4.466,18.355-6.73,27.527c-1.786,7.234-3.729,14.434-5.335,21.709c-0.235,1.068,0.699,2.842,1.644,3.629
			c1.878,1.568,4.104,2.738,6.247,3.965c15.495,8.873,30.994,17.74,46.528,26.543C562.238,478.968,564.205,479.554,566.067,480.327
			 M293.149,641.94c65.785-62.799,131.164-125.209,197.664-188.689c-3.336-0.297-5.064-0.582-6.793-0.586
			c-99.967-0.227-199.934-0.416-299.9-0.648c-26.156-0.061-52.313-0.27-78.469-0.314c-0.001,0-0.003,0-0.005,0
			c-1.457,0-2.915,0.882-4.371,1.352c0.739,1.186,1.308,2.531,2.249,3.527c2.971,3.143,6.049,6.188,9.143,9.211
			c46.475,45.412,92.953,90.822,139.444,136.219C265.558,615.14,279.049,628.224,293.149,641.94 M263.075,625.579
			c0.316-0.453,0.632-0.906,0.947-1.361c-0.574-0.707-1.084-1.48-1.732-2.113c-36.107-35.283-72.237-70.545-108.342-105.83
			c-20.443-19.98-40.86-39.99-61.254-60.023c-1.495-1.469-2.745-2.527-4.447-2.527c-0.907,0-1.942,0.301-3.211,1
			c-14.475,7.977-29.248,15.41-43.886,23.096c-5.569,2.924-11.067,5.982-17.603,9.523
			C104.2,533.888,183.638,579.733,263.075,625.579 M324.233,624.923c78.795-45.496,157.59-90.994,237.326-137.035
			c-1.829-1.303-2.328-1.723-2.884-2.045c-17.157-9.971-34.443-19.727-51.397-30.031c-1.776-1.08-3.228-1.571-4.54-1.571
			c-1.979,0-3.641,1.118-5.618,3.024c-19.84,19.131-39.841,38.096-59.781,57.121c-37.004,35.309-74.006,70.621-110.997,105.943
			c-1.098,1.049-2.071,2.225-3.104,3.342C323.569,624.089,323.901,624.507,324.233,624.923 M293.13-1.718
			c-2.232,0-4.376,0.48-6.036,1.353c-5.047,2.653-9.961,5.604-14.713,8.458c-2.66,1.598-5.411,3.25-8.125,4.813
			c-10.903,6.276-22.005,12.634-32.742,18.784c-11.281,6.46-22.945,13.141-34.405,19.741c-13.269,7.643-26.742,15.438-39.772,22.978
			c-11.785,6.819-23.57,13.639-35.366,20.439c-7.329,4.225-14.8,8.496-22.025,12.625c-8.456,4.833-17.2,9.832-25.781,14.794
			c-9.601,5.551-19.342,11.222-28.763,16.706c-10.377,6.041-21.108,12.288-31.68,18.392c-3.113,1.797-7.25,5.016-7.241,12.19
			c0.103,78.443,0.104,158.201,0.106,235.333l0.002,46.15c0,2.762-0.009,5.523-0.018,8.286c-0.027,8.294-0.054,16.871,0.169,25.336
			c0.092,3.501,1.884,8.182,5.131,10.354c5.139,3.436,10.548,6.475,15.779,9.413c1.242,0.698,2.485,1.396,3.723,2.1
			c6.755,3.834,13.521,7.649,20.286,11.465c11.333,6.392,23.05,13,34.513,19.588c21.49,12.353,43.281,25.028,64.354,37.287
			l9.819,5.712c6.416,3.731,12.927,7.557,19.224,11.257c8.414,4.942,17.113,10.053,25.716,15.019
			c6.762,3.902,13.664,7.797,20.339,11.563c6.631,3.741,13.488,7.609,20.185,11.474c10.401,6.001,20.919,12.176,31.091,18.147
			c4.557,2.676,9.106,5.347,13.649,8.005l2.539,1.485l2.532-1.497c3.192-1.889,6.396-3.796,9.61-5.71
			c6.963-4.146,14.163-8.432,21.312-12.562c9.417-5.44,19.022-10.931,28.312-16.239c8.783-5.02,17.866-10.21,26.781-15.355
			c12.866-7.425,25.924-15.01,38.551-22.344c9.751-5.664,19.502-11.328,29.264-16.978c20.518-11.873,41.053-23.704,60.187-34.721
			l10.936-6.299c16.979-9.784,34.536-19.9,51.878-29.696c3.098-1.751,7.199-4.884,7.082-11.854
			c-0.116-6.939-0.103-14.02-0.09-20.867c0.004-2.181,0.009-4.36,0.009-6.54l0.004-34.994c0.01-82.59,0.019-167.992,0.126-251.986
			c0.003-2.089,0.012-8.446-6.486-12.197l-9.781-5.65c-10.872-6.283-22.115-12.779-33.203-19.128
			c-9.898-5.668-19.808-11.318-29.716-16.968c-14.397-8.209-29.285-16.698-43.889-25.103c-17.916-10.31-36.09-20.876-53.664-31.095
			c-5.707-3.318-11.413-6.636-17.121-9.952c-6.556-3.807-13.108-7.618-19.66-11.429C344.22,25.659,321.634,12.523,299.32-0.24
			C297.183-1.462,294.774-1.718,293.13-1.718L293.13-1.718z M62.216,149.384c9.694-5.583,19.545-11.215,29.084-16.669
			c5.088-2.909,10.176-5.818,15.262-8.731c5.134-2.941,10.271-5.878,15.407-8.816c13.154-7.522,26.756-15.301,40.1-23.024
			c13.287-7.69,26.766-15.553,39.8-23.157c9.273-5.41,18.547-10.82,27.83-16.214c18.327-10.65,36.307-21.087,54.478-31.527
			c-0.002,15.005,0.016,30.2,0.034,44.924c0.009,7.54,0.019,15.08,0.025,22.619c0.002,2.808-0.004,5.616-0.011,8.424
			c-0.009,3.499-0.018,6.997-0.008,10.495c-6.654,1.222-13.361,2.587-19.854,3.91c-5.634,1.147-11.459,2.333-17.187,3.412
			c-5.916,1.113-11.974,2.143-17.833,3.139c-5.715,0.972-11.625,1.976-17.439,3.064c-7.607,1.422-15.302,2.98-22.743,4.486
			c-4.388,0.888-8.925,1.806-13.386,2.685c-3.374,0.665-6.827,1.302-10.167,1.918c-2.313,0.427-4.625,0.854-6.936,1.293
			c-6.061,1.154-12.12,2.317-18.178,3.48c-12.605,2.419-25.64,4.921-38.468,7.292c-5.911,1.092-11.961,2.106-17.812,3.087
			c-5.876,0.985-11.953,2.004-17.931,3.108C64.926,148.833,63.568,149.103,62.216,149.384L62.216,149.384z M302.209,107.516
			c-0.227-6.5-0.217-13.157-0.208-19.597c0.003-1.517,0.005-3.033,0.004-4.549c-0.01-22.382-0.003-42.632,0.021-61.824l53.814,31.06
			l167.496,96.672c-4.809-1.013-9.747-2.051-14.621-3.055c-5.539-1.141-11.074-2.135-16.269-3.056
			c-6.164-1.093-12.331-2.168-18.497-3.244c-10.472-1.826-21.3-3.715-31.923-5.66c-13.226-2.422-26.665-4.973-39.661-7.44
			c-6.34-1.204-12.68-2.407-19.021-3.601c-6.92-1.303-13.841-2.603-20.762-3.902c-12.115-2.274-24.643-4.626-36.958-6.962
			l-2.348-0.445c-6.93-1.312-14.081-2.666-21.024-4.28C302.234,107.591,302.22,107.551,302.209,107.516L302.209,107.516z
			 M26.837,174.17c7.999-1.849,15.889-3.42,22.622-4.725c8.525-1.652,17.209-3.283,25.608-4.86
			c4.656-0.875,9.311-1.749,13.965-2.631c2.021-0.383,4.038-0.783,6.055-1.182c3.126-0.619,6.358-1.26,9.523-1.818
			c4.667-0.824,9.427-1.632,14.03-2.413c7.476-1.269,15.206-2.58,22.806-4.007c6.002-1.127,12.057-2.391,17.911-3.614
			c5.475-1.143,11.136-2.326,16.701-3.383c6.175-1.173,12.493-2.267,18.604-3.324c5.611-0.971,11.414-1.976,17.124-3.044
			c7.201-1.349,14.49-2.809,21.539-4.221c4.624-0.926,9.404-1.884,14.104-2.799c10.214-1.989,19.506-3.763,28.233-5.389
			L156.993,321.222L92.963,426.147c-1.23-4.813-2.462-9.627-3.709-14.437c-1.867-7.201-3.929-15.065-6.304-24.042
			c-1.923-7.271-3.863-14.536-5.803-21.804l-1.469-5.505c-0.785-2.941-1.575-5.883-2.365-8.823
			c-1.586-5.904-3.227-12.011-4.794-18.019c-1.073-4.116-2.132-8.319-3.157-12.384c-1.121-4.446-2.279-9.044-3.466-13.566
			c-1.224-4.666-2.511-9.387-3.755-13.952c-1.106-4.06-2.25-8.258-3.341-12.386c-1.486-5.623-2.955-11.363-4.375-16.914
			c-0.646-2.523-1.291-5.047-1.94-7.57l-1.456-5.654c-1.699-6.602-3.398-13.203-5.1-19.804c-0.689-2.672-1.375-5.345-2.061-8.018
			c-1.673-6.521-3.403-13.263-5.154-19.891c-1.264-4.789-2.586-9.638-3.864-14.327c-1.005-3.688-2.01-7.375-2.998-11.067
			c-0.123-0.459-0.255-0.918-0.388-1.379C27.212,175.735,26.97,174.895,26.837,174.17L26.837,174.17z M497.579,427.16
			c-13.599-21.771-27.261-43.721-42.311-67.908c-20.986-33.727-41.967-67.457-62.945-101.188
			c-7.261-11.674-14.517-23.351-21.773-35.028c-9.005-14.49-18.011-28.98-27.022-43.466c-4.629-7.441-9.262-14.879-13.895-22.318
			c-6.288-10.096-12.576-20.191-18.854-30.292l121.077,22.767l128.104,24.088c-0.502,2.057-1,4.094-1.493,6.114
			c-1.967,8.048-3.869,15.839-5.794,23.625c-1.411,5.71-2.869,11.517-4.28,17.131c-0.862,3.435-1.726,6.87-2.583,10.306
			l-1.714,6.849c-1.77,7.068-3.6,14.377-5.358,21.583c-1.166,4.781-2.32,9.641-3.437,14.342c-1.065,4.488-2.167,9.129-3.275,13.681
			c-1.916,7.874-3.955,16.056-6.231,25.013c-0.616,2.423-1.287,4.897-1.936,7.289c-0.716,2.644-1.457,5.377-2.142,8.102
			l-1.676,6.669c-3.898,15.508-7.929,31.544-11.792,47.349c-2.103,8.603-4.142,17.358-6.115,25.826
			c-1.002,4.305-2.005,8.609-3.02,12.911c-0.204,0.864-0.404,1.729-0.604,2.596C498.197,424.548,497.893,425.864,497.579,427.16
			L497.579,427.16z M105.314,439.425l187.921-307.952l112.646,181.136l78.866,126.816H105.314L105.314,439.425z M24.605,472.392
			V233.616c1.505,5.81,2.964,11.484,4.283,16.625c0.88,3.432,1.75,6.867,2.62,10.302c1.423,5.619,2.895,11.43,4.393,17.142
			c1.16,4.426,2.38,8.904,3.559,13.234c1.132,4.157,2.304,8.456,3.414,12.683c1.203,4.575,2.388,9.248,3.534,13.766
			c1.014,3.995,2.062,8.126,3.122,12.191c1.265,4.852,2.581,9.769,3.854,14.523c0.934,3.489,1.867,6.978,2.789,10.47
			c1.047,3.966,2.083,7.935,3.12,11.903c1.282,4.91,2.608,9.988,3.936,14.982c1.073,4.035,2.166,8.064,3.259,12.095
			c1.307,4.815,2.658,9.796,3.947,14.695c2.105,8.002,4.076,15.815,6.249,24.469c0.169,0.674,0.341,1.349,0.514,2.024
			c0.795,3.116,1.548,6.07,2.043,9.031c-16.896,8.963-33.642,17.693-51.347,26.925L24.605,472.392L24.605,472.392z M511.199,443.854
			c1.024-4.542,2.194-9.145,3.328-13.605c0.586-2.305,1.171-4.608,1.741-6.917c1.033-4.185,2.05-8.374,3.067-12.562
			c1.191-4.907,2.423-9.981,3.661-14.957c1.126-4.531,2.299-9.137,3.433-13.591c1.236-4.857,2.515-9.879,3.741-14.835
			c1.047-4.23,2.075-8.531,3.069-12.689c1.054-4.406,2.143-8.963,3.252-13.423c1.19-4.787,2.441-9.655,3.65-14.364
			c1.221-4.754,2.483-9.67,3.69-14.523c1.161-4.674,2.298-9.426,3.396-14.021c0.986-4.126,2.007-8.394,3.039-12.575
			c1.194-4.841,2.439-9.764,3.644-14.524c1.188-4.699,2.418-9.558,3.602-14.35c1.34-5.425,2.665-10.942,3.947-16.277
			c0.229-0.954,0.459-1.907,0.688-2.861c-0.028,83.967-0.083,161.204-0.168,235.291c-15.253-8.646-30.242-17.223-45.526-25.975
			c-0.325-0.187-0.651-0.37-0.978-0.555C513.901,445.652,512.407,444.808,511.199,443.854L511.199,443.854z M293.182,634.997
			c-3.251-3.162-6.473-6.293-9.671-9.4c-9.61-9.34-18.688-18.162-27.906-27.163c-48.218-47.083-95.515-93.294-139.443-136.218
			c-1.807-1.766-3.686-3.614-5.552-5.503c12.11,0.029,24.34,0.091,36.214,0.15c12.219,0.062,24.854,0.124,37.285,0.153
			c53.672,0.125,107.343,0.237,161.015,0.35c44.611,0.094,89.226,0.187,133.837,0.287l-37.166,35.479L293.182,634.997
			L293.182,634.997z M33.768,487.468c3.336-1.819,6.532-3.555,9.707-5.222c4.613-2.422,9.324-4.862,13.879-7.223
			c9.901-5.13,20.139-10.434,30.096-15.921c0.276-0.152,0.483-0.245,0.626-0.302c0.211,0.164,0.555,0.467,1.114,1.017
			c20.873,20.504,41.485,40.702,61.264,60.033c19.023,18.591,38.053,37.176,57.083,55.762c10.13,9.893,20.261,19.786,30.39,29.681
			L33.768,487.468L33.768,487.468z M351.014,603.687c29.922-28.566,59.847-57.125,89.777-85.684
			c5.381-5.134,10.767-10.264,16.152-15.395c14.332-13.651,29.151-27.767,43.647-41.744c1.666-1.605,2.143-1.624,2.147-1.624
			c0.057,0,0.594,0.023,1.942,0.844c12.241,7.44,24.836,14.7,37.017,21.721c3.401,1.961,6.804,3.921,10.201,5.888l-54.902,31.702
			L351.014,603.687L351.014,603.687z"/>
	</g>
</g>
</svg>
