<?xml version="1.0" standalone="no"?>
<!DOCTYPE svg PUBLIC "-//W3C//DTD SVG 20010904//EN"
 "http://www.w3.org/TR/2001/REC-SVG-20010904/DTD/svg10.dtd">
<svg version="1.0" xmlns="http://www.w3.org/2000/svg"
 width="652.000000pt" height="652.000000pt" viewBox="0 0 652.000000 652.000000"
 preserveAspectRatio="xMidYMid meet">
<metadata>
Created by potrace 1.11, written by Peter Selinger 2001-2013
</metadata>
<g transform="translate(0.000000,652.000000) scale(0.100000,-0.100000)"
fill="#000000" stroke="none">
<path d="M3110 6468 c-77 -46 -467 -272 -580 -336 -49 -27 -319 -183 -413
-238 -32 -19 -62 -34 -67 -34 -5 0 -10 -3 -12 -7 -1 -5 -23 -19 -48 -32 -25
-14 -76 -43 -115 -66 -38 -23 -257 -149 -485 -280 -228 -131 -502 -289 -609
-352 -106 -62 -195 -113 -197 -113 -2 0 -35 -20 -74 -45 -118 -76 -106 130
-105 -1712 1 -1483 3 -1610 18 -1640 23 -42 24 -43 412 -263 390 -221 526
-299 540 -310 6 -4 35 -21 65 -37 30 -17 204 -117 385 -223 182 -106 350 -204
375 -218 25 -14 62 -36 83 -49 22 -14 58 -35 80 -48 23 -13 119 -67 212 -120
94 -54 188 -107 210 -119 22 -13 92 -53 155 -91 63 -37 135 -79 160 -92 25
-14 50 -30 57 -35 6 -5 35 -8 64 -6 l52 3 -39 21 c-69 37 -138 77 -177 101
-21 13 -53 32 -70 42 -151 85 -747 429 -882 508 -162 95 -456 266 -780 453
-82 48 -208 120 -280 160 -71 40 -150 85 -175 100 -25 14 -52 30 -60 34 -8 4
-24 12 -35 19 -11 7 -74 43 -140 80 -173 98 -168 94 -175 169 -3 35 -5 759 -5
1609 0 1413 2 1547 17 1570 9 13 116 82 239 154 212 122 888 511 974 560 54
30 341 197 385 224 19 11 42 24 50 28 8 4 71 40 139 80 67 40 124 73 126 73 1
0 69 39 151 86 82 47 169 97 194 111 48 27 252 145 420 242 71 41 112 59 128
56 27 -5 17 1 467 -260 55 -32 116 -67 135 -78 94 -53 125 -72 128 -79 2 -4 8
-8 13 -8 5 0 136 -74 292 -164 155 -90 298 -173 318 -184 20 -11 47 -26 60
-34 13 -7 26 -15 29 -18 3 -3 16 -11 29 -19 14 -7 43 -24 65 -36 23 -13 208
-119 411 -235 204 -117 383 -220 400 -228 16 -9 65 -38 108 -64 43 -26 81 -48
83 -48 13 0 242 -141 255 -156 12 -15 14 -247 14 -1627 l-1 -1609 -22 -19
c-19 -15 -249 -149 -432 -251 -25 -14 -115 -66 -200 -115 -85 -49 -247 -143
-360 -208 -113 -65 -275 -159 -360 -208 -85 -49 -168 -98 -185 -107 -16 -9
-95 -55 -175 -102 -80 -47 -269 -156 -420 -242 -151 -87 -360 -208 -464 -270
l-190 -111 45 -3 c40 -3 58 4 148 58 57 33 106 60 111 60 5 0 10 3 12 8 2 4
66 43 143 86 77 44 165 94 195 112 59 34 861 498 920 532 52 29 263 150 280
161 8 5 110 64 225 130 116 67 221 128 235 136 14 8 129 74 255 146 236 135
259 149 278 184 8 14 11 466 12 1629 1 1477 -1 1612 -16 1645 -9 20 -25 41
-35 47 -11 6 -93 54 -184 106 -91 52 -210 121 -265 153 -55 32 -120 69 -145
83 -25 14 -135 77 -245 140 -110 63 -218 125 -240 137 -22 13 -80 47 -130 75
-49 29 -112 65 -140 81 -113 62 -431 249 -442 259 -7 6 -21 14 -30 18 -16 6
-193 107 -233 133 -35 22 -291 169 -295 169 -2 0 -56 32 -121 70 -64 39 -118
70 -119 70 -2 0 -38 20 -79 45 -72 42 -81 45 -149 45 -69 -1 -76 -3 -157 -52z"/>
<path d="M3065 6299 c-178 -103 -151 -88 -480 -279 -506 -294 -1297 -750
-1300 -750 -3 0 -37 -20 -77 -43 -40 -24 -165 -97 -277 -162 -218 -127 -233
-145 -101 -119 41 8 88 17 104 20 16 2 32 7 36 9 4 2 22 7 41 10 19 3 45 7 59
10 14 3 41 7 60 10 19 3 46 7 60 10 14 3 41 7 60 10 77 12 166 29 250 46 30 7
64 13 75 14 11 1 31 5 45 8 21 5 239 47 320 61 14 3 50 10 80 16 30 6 69 13
85 16 17 3 75 14 130 25 137 28 352 69 395 75 19 3 46 7 60 10 57 11 69 13
105 18 20 4 56 10 78 16 36 8 129 26 227 44 65 12 113 25 123 35 12 12 14 941
3 960 -4 6 -10 11 -14 11 -4 0 -70 -37 -147 -81z m116 -266 c1 -452 0 -585 -3
-589 -2 -2 -17 -5 -33 -8 -35 -6 -118 -23 -155 -31 -30 -6 -58 -12 -130 -25
-30 -6 -66 -12 -80 -15 -14 -3 -41 -8 -60 -11 -19 -4 -44 -8 -55 -10 -11 -2
-40 -7 -65 -10 -25 -3 -47 -8 -50 -9 -3 -2 -26 -6 -50 -10 -25 -3 -74 -13
-110 -20 -36 -8 -76 -17 -90 -19 -14 -2 -72 -14 -130 -25 -58 -11 -123 -23
-145 -27 -22 -3 -42 -7 -45 -9 -3 -2 -24 -6 -46 -9 -22 -4 -51 -9 -64 -12 -14
-2 -47 -9 -75 -14 -27 -6 -61 -13 -75 -16 -14 -3 -36 -7 -50 -9 -14 -2 -36 -7
-50 -10 -14 -3 -36 -7 -50 -10 -14 -2 -38 -7 -55 -9 -16 -3 -39 -8 -50 -10
-33 -7 -188 -35 -220 -40 -16 -3 -46 -8 -65 -11 -19 -3 -46 -7 -60 -10 -14 -3
-41 -7 -60 -10 -19 -3 -43 -8 -52 -11 -48 -14 4 21 152 104 25 14 103 59 173
99 71 41 148 85 171 98 68 38 410 234 426 245 14 9 111 65 175 100 17 10 72
43 123 74 51 31 94 56 96 56 3 0 92 52 226 131 88 52 159 93 205 119 28 15
131 75 230 133 99 58 183 106 188 106 4 1 7 -119 8 -266z"/>
<path d="M3310 5900 l1 -480 22 -14 c12 -8 38 -18 57 -21 19 -3 55 -11 80 -16
25 -6 56 -12 70 -14 14 -2 50 -9 80 -15 30 -6 64 -13 75 -14 19 -3 110 -20
165 -31 14 -3 50 -9 80 -15 30 -6 66 -12 80 -15 14 -3 41 -8 60 -11 19 -3 42
-7 50 -9 8 -2 31 -7 50 -10 19 -3 67 -12 105 -20 39 -8 86 -17 105 -20 41 -7
220 -41 300 -57 30 -6 62 -12 70 -14 40 -6 97 -15 225 -38 141 -26 171 -31
235 -42 65 -11 85 -15 180 -34 52 -11 110 -22 129 -25 19 -3 37 -7 40 -9 3 -2
22 -7 41 -10 50 -8 89 -16 134 -26 37 -8 80 1 60 12 -28 17 -526 304 -559 323
-22 13 -155 89 -295 170 -140 81 -274 158 -297 171 -23 13 -92 53 -153 89 -61
36 -115 65 -121 65 -5 0 -9 5 -9 10 0 6 -4 10 -9 10 -5 0 -92 48 -193 107
-101 58 -203 117 -227 131 -25 14 -68 38 -95 55 -28 16 -65 38 -83 48 -17 10
-121 70 -231 133 -111 64 -205 116 -211 116 -8 0 -11 -141 -11 -480z m311 254
c140 -80 266 -155 281 -165 15 -10 29 -19 32 -19 2 0 71 -39 153 -86 81 -47
171 -99 198 -114 28 -15 75 -42 105 -60 67 -40 230 -135 285 -166 22 -12 123
-70 225 -129 102 -59 287 -166 413 -238 125 -72 227 -135 227 -140 0 -4 -5 -5
-10 -2 -6 4 -23 8 -38 11 -15 2 -62 11 -105 20 -42 8 -87 17 -100 19 -12 2
-87 16 -167 29 -80 14 -156 28 -170 31 -14 3 -38 7 -55 10 -28 4 -61 10 -197
34 -29 6 -100 19 -158 30 -58 11 -130 25 -160 30 -30 6 -66 12 -80 15 -14 3
-86 16 -160 31 -154 29 -154 29 -235 44 -33 6 -71 13 -85 16 -55 11 -146 28
-165 31 -11 1 -45 8 -75 14 -30 6 -68 13 -85 16 -16 2 -52 10 -80 17 l-50 13
-1 427 c-1 235 -1 427 1 427 1 0 117 -66 256 -146z"/>
<path d="M3360 5308 c0 -9 122 -217 143 -243 4 -5 80 -127 169 -270 88 -143
211 -340 272 -438 61 -98 118 -191 127 -205 9 -15 85 -137 169 -272 84 -135
158 -254 164 -265 6 -11 28 -46 49 -78 20 -31 37 -61 37 -66 0 -5 4 -11 8 -13
4 -1 29 -37 54 -78 25 -41 143 -232 263 -425 120 -192 225 -362 234 -377 86
-147 265 -418 276 -418 23 0 23 -1 65 180 11 47 36 153 55 235 20 83 38 161
41 175 3 14 8 34 11 45 4 11 8 25 9 32 1 6 16 65 33 130 16 65 32 129 35 143
3 14 12 52 21 85 38 142 117 452 150 595 46 194 40 170 65 270 12 47 23 92 25
100 2 8 11 43 20 77 9 35 18 71 20 80 2 10 31 128 65 262 33 134 58 246 55
249 -3 3 -72 18 -153 33 -81 15 -230 44 -332 63 -102 19 -196 37 -210 39 -37
7 -191 36 -220 42 -14 3 -38 8 -55 10 -16 3 -66 13 -110 21 -44 8 -91 17 -105
20 -14 2 -47 9 -75 14 -27 5 -63 12 -80 15 -16 3 -41 7 -55 10 -14 3 -50 9
-80 15 -59 11 -90 17 -130 25 -14 2 -36 7 -50 9 -14 3 -135 25 -270 51 -257
48 -308 58 -535 100 -77 14 -148 27 -157 29 -10 2 -18 0 -18 -6z m240 -87 c58
-11 121 -23 140 -26 19 -3 42 -8 50 -10 8 -2 35 -7 60 -10 24 -4 47 -8 50 -10
3 -2 26 -6 50 -10 25 -3 61 -10 80 -15 19 -5 49 -11 65 -14 72 -11 211 -37
225 -41 8 -2 31 -7 50 -10 19 -3 71 -13 115 -21 44 -8 103 -19 130 -24 28 -5
61 -11 75 -14 14 -3 36 -7 50 -10 14 -3 50 -10 80 -16 30 -6 66 -12 80 -15 14
-2 40 -7 57 -10 18 -3 77 -14 130 -24 54 -11 126 -25 160 -31 35 -6 75 -13 90
-16 16 -3 60 -11 98 -19 39 -8 90 -17 115 -20 24 -4 47 -8 51 -11 3 -2 24 -6
45 -9 21 -2 50 -7 64 -10 14 -3 62 -13 108 -21 133 -24 124 -10 90 -149 -16
-66 -31 -127 -33 -135 -2 -8 -17 -69 -34 -135 -16 -66 -49 -201 -74 -300 -25
-99 -62 -250 -82 -335 -21 -85 -55 -225 -77 -310 -22 -85 -42 -163 -44 -173
-2 -10 -6 -27 -9 -37 -3 -10 -7 -27 -10 -37 -2 -10 -18 -74 -35 -143 -18 -69
-33 -132 -35 -140 -2 -8 -4 -15 -6 -15 -1 0 -3 -9 -5 -20 -2 -11 -10 -47 -19
-80 -8 -33 -17 -69 -19 -80 -2 -11 -22 -94 -44 -185 -22 -91 -46 -191 -53
-222 l-12 -58 -24 34 c-12 19 -23 38 -23 41 0 3 -5 11 -11 18 -6 7 -119 188
-253 402 -133 215 -388 624 -566 910 -442 711 -599 964 -798 1285 -94 151
-175 280 -181 286 -12 15 -5 23 17 18 9 -2 64 -12 122 -23z"/>
<path d="M3099 5306 c-2 -2 -24 -7 -49 -11 -24 -4 -47 -8 -50 -10 -3 -2 -26
-6 -50 -10 -25 -3 -63 -10 -85 -15 -22 -5 -53 -11 -70 -14 -16 -3 -109 -21
-205 -40 -190 -37 -232 -45 -270 -50 -14 -2 -41 -7 -60 -10 -19 -4 -48 -9 -65
-12 -16 -3 -84 -16 -150 -30 -66 -13 -133 -27 -150 -30 -16 -3 -61 -11 -100
-19 -38 -8 -88 -17 -110 -20 -22 -4 -73 -13 -114 -21 -40 -9 -87 -17 -105 -19
-27 -3 -73 -11 -166 -30 -14 -3 -38 -8 -55 -10 -62 -11 -226 -42 -260 -49 -11
-2 -69 -14 -130 -26 -60 -12 -119 -23 -130 -26 -11 -2 -45 -9 -75 -15 -30 -6
-63 -16 -74 -21 -26 -14 -23 -30 42 -273 35 -129 167 -641 177 -685 2 -8 17
-64 33 -125 16 -60 48 -182 71 -270 23 -88 58 -221 78 -295 20 -74 50 -191 69
-260 18 -69 42 -161 54 -205 12 -44 24 -88 26 -97 2 -10 6 -26 9 -35 20 -76
57 -220 59 -228 1 -5 5 -19 9 -30 3 -11 8 -31 11 -45 18 -88 37 -134 49 -119
3 2 68 110 147 239 78 129 152 251 165 270 12 19 61 98 107 175 47 77 197 322
333 545 136 223 255 419 265 435 26 47 270 446 295 485 13 19 86 139 163 265
76 127 207 343 292 480 84 138 154 253 157 258 4 7 -80 10 -88 3z m-9 -60 c0
-3 -29 -51 -64 -108 -34 -57 -152 -249 -261 -428 -218 -359 -359 -590 -523
-858 -60 -97 -228 -373 -374 -612 -601 -986 -591 -972 -601 -955 -5 9 -28 92
-52 183 -23 92 -54 210 -68 262 -47 172 -68 253 -103 390 -19 74 -55 209 -79
300 -24 91 -58 219 -75 285 -18 66 -36 136 -41 155 -5 19 -12 46 -15 60 -3 14
-8 34 -11 45 -4 11 -8 25 -9 30 -1 6 -10 39 -19 75 -9 36 -18 72 -20 80 -2 8
-22 85 -44 170 -23 85 -54 207 -71 270 -16 63 -35 130 -41 148 -6 19 -9 35 -7
37 1 2 93 21 203 44 204 41 233 47 295 57 19 3 65 12 102 20 37 7 82 16 100
19 18 3 57 10 87 16 30 6 64 12 75 14 28 4 144 24 176 30 14 3 41 8 60 11 29
5 232 45 305 60 11 2 58 11 105 20 47 9 94 18 105 20 11 2 47 9 80 14 86 14
143 25 345 65 14 3 36 7 50 10 30 5 115 22 150 30 13 2 42 7 64 11 22 3 43 7
46 9 3 2 26 6 50 10 25 4 47 9 49 11 6 5 31 5 31 0z"/>
<path d="M3262 5288 c-7 -7 -12 -15 -12 -19 0 -5 -26 -50 -58 -101 -33 -51
-186 -302 -342 -558 -155 -256 -293 -481 -305 -500 -21 -32 -177 -287 -726
-1190 -112 -184 -207 -336 -211 -338 -4 -2 -8 -8 -8 -13 0 -4 -44 -79 -97
-166 -135 -220 -193 -317 -193 -323 0 -3 891 -6 1980 -6 1089 0 1980 3 1980 7
0 4 -79 135 -176 291 -97 156 -214 344 -260 418 -46 74 -88 140 -94 147 -5 7
-10 15 -10 18 0 3 -17 31 -37 63 -20 31 -47 73 -59 92 -12 19 -138 222 -279
450 -142 228 -319 514 -395 635 -75 121 -197 317 -270 435 -401 646 -417 669
-428 658z m98 -229 c7 -12 17 -28 22 -33 5 -6 42 -64 81 -129 40 -64 130 -211
201 -325 184 -295 602 -966 816 -1312 101 -162 203 -326 227 -365 48 -77 197
-316 359 -577 57 -92 105 -173 106 -180 2 -9 -399 -12 -1880 -13 -1036 0
-1886 3 -1888 6 -2 3 17 37 41 75 24 38 54 87 66 109 11 22 36 63 54 90 17 28
60 97 95 155 35 58 73 121 85 140 13 19 199 325 415 680 216 355 408 670 427
700 19 30 67 109 107 175 116 190 324 532 381 625 29 47 85 138 125 203 l72
119 38 -60 c21 -33 44 -70 50 -83z"/>
<path d="M539 4520 c-7 -23 -2 -2800 5 -2800 5 0 84 39 175 86 167 87 212 111
374 199 l89 47 -5 47 c-5 51 -39 183 -257 1001 -17 63 -32 122 -34 130 -11 42
-99 382 -130 497 -20 73 -38 143 -40 155 -6 25 -27 106 -81 313 -18 71 -44
168 -56 215 -19 77 -36 123 -40 110z m161 -780 c34 -129 73 -275 85 -325 13
-49 33 -126 45 -170 12 -44 23 -89 26 -100 2 -11 22 -87 44 -170 46 -168 48
-178 54 -202 2 -10 11 -45 20 -78 37 -135 125 -471 142 -544 8 -36 11 -68 7
-71 -8 -7 -85 -48 -328 -175 -71 -38 -146 -76 -165 -87 -30 -15 -36 -16 -40
-3 -4 13 -4 2323 0 2335 1 3 12 -35 25 -85 12 -49 51 -196 85 -325z"/>
<path d="M5985 4458 c-3 -13 -37 -153 -76 -313 -85 -349 -73 -299 -103 -422
-14 -56 -28 -112 -30 -125 -3 -13 -10 -43 -17 -68 -6 -25 -12 -52 -14 -60 -2
-8 -13 -53 -25 -100 -12 -47 -24 -93 -26 -102 -7 -30 -11 -47 -54 -218 -23
-91 -43 -172 -45 -180 -2 -8 -27 -107 -55 -220 -29 -113 -54 -216 -56 -230 -3
-14 -9 -39 -15 -56 -5 -17 -12 -42 -14 -55 -2 -13 -16 -73 -31 -132 -26 -104
-26 -108 -8 -128 23 -25 556 -329 577 -329 15 0 16 58 17 642 1 603 1 2030 0
2091 0 33 -18 36 -25 5z m-25 -1508 c-1 -638 -4 -1159 -8 -1156 -4 2 -54 30
-112 63 -370 211 -385 220 -382 239 2 11 37 156 79 324 41 168 77 314 79 324
2 10 8 33 13 50 6 17 12 42 15 56 5 27 37 154 111 450 62 250 74 301 80 328 3
12 7 30 10 40 2 9 28 113 57 230 29 116 54 212 56 212 1 0 2 -522 2 -1160z"/>
<path d="M1392 1999 c-9 -4 -20 -5 -24 -2 -5 2 -8 -4 -8 -14 0 -10 83 -99 194
-208 261 -257 874 -856 962 -941 40 -38 211 -205 380 -371 170 -166 324 -316
343 -333 l33 -32 61 58 c33 33 70 68 82 79 12 11 104 99 206 196 101 97 207
198 234 224 28 26 126 120 219 209 92 88 198 189 235 224 36 35 136 130 221
211 85 82 180 172 210 201 30 28 134 128 231 221 97 92 198 188 224 212 33 31
44 47 35 52 -7 4 -762 9 -1679 11 -916 3 -1773 5 -1904 7 -131 1 -246 -1 -255
-4z m1910 -54 c997 -2 1815 -5 1818 -5 5 0 -44 -48 -350 -340 -95 -91 -194
-185 -220 -210 -26 -25 -125 -119 -220 -210 -95 -91 -196 -187 -225 -215 -29
-27 -130 -124 -225 -215 -95 -91 -198 -189 -229 -219 -31 -29 -99 -94 -151
-144 -52 -50 -125 -119 -161 -154 l-66 -64 -69 66 c-68 66 -579 565 -818 798
-67 66 -251 246 -409 400 -498 487 -518 507 -512 517 4 6 10 8 15 5 5 -3 824
-7 1822 -10z"/>
<path d="M1180 1967 c-45 -24 -427 -226 -528 -280 -35 -18 -63 -38 -62 -43 1
-5 18 -18 38 -29 21 -11 39 -23 40 -27 2 -5 8 -8 13 -8 5 0 39 -18 75 -40 36
-22 68 -40 70 -40 2 0 32 -17 66 -38 35 -21 83 -50 108 -64 85 -47 1045 -601
1178 -679 45 -27 87 -49 92 -49 6 0 10 -4 10 -10 0 -5 4 -10 9 -10 6 0 108
-57 228 -127 120 -69 238 -137 263 -151 25 -14 78 -45 117 -68 40 -24 75 -39
78 -34 6 10 1 15 -471 477 -363 355 -487 476 -939 918 -169 165 -312 303 -318
307 -18 11 -39 9 -67 -5z m199 -191 c86 -85 217 -214 291 -286 74 -73 276
-270 448 -439 173 -168 372 -363 443 -432 71 -70 129 -130 129 -134 0 -5 -8
-2 -17 6 -10 8 -29 20 -42 27 -13 8 -38 22 -55 31 -37 21 -357 206 -615 355
-101 58 -187 106 -192 106 -5 0 -9 5 -9 10 0 6 -4 10 -9 10 -9 0 -257 141
-446 253 -38 23 -74 44 -79 46 -5 2 -85 48 -179 102 -93 55 -173 99 -178 99
-5 0 -9 5 -9 10 0 6 -5 10 -10 10 -6 0 -40 18 -76 40 -36 22 -70 40 -76 40 -5
0 -8 5 -6 12 5 13 7 14 266 149 96 50 192 101 215 114 23 13 44 24 46 25 2 0
74 -69 160 -154z"/>
<path d="M5304 1937 c-27 -23 -67 -60 -90 -82 -22 -22 -118 -114 -214 -205
-95 -91 -196 -187 -225 -215 -28 -27 -125 -120 -214 -205 -90 -85 -189 -180
-220 -210 -32 -30 -107 -102 -168 -160 -60 -58 -188 -180 -284 -271 -96 -92
-207 -198 -247 -237 -41 -38 -70 -72 -65 -75 10 -7 56 19 523 290 190 110 365
211 390 225 25 14 113 65 195 113 83 48 170 99 194 113 25 14 67 38 93 53 27
16 53 29 58 29 6 0 10 5 10 10 0 6 4 10 9 10 5 0 49 23 98 51 48 29 147 85
218 127 72 41 173 100 225 130 84 49 146 84 262 151 86 49 98 57 95 63 -3 12
-542 325 -570 332 -19 4 -35 -3 -73 -37z m153 -62 c40 -25 78 -45 83 -45 6 0
10 -4 10 -9 0 -5 6 -11 13 -13 19 -5 287 -162 287 -168 -1 -3 -134 -81 -297
-175 -163 -93 -400 -230 -527 -303 -251 -145 -753 -435 -801 -462 -16 -10
-101 -58 -187 -109 -86 -50 -159 -91 -162 -91 -5 0 42 46 209 205 33 31 125
119 205 195 80 76 172 164 205 195 92 87 391 374 450 430 195 188 399 381 409
387 18 12 25 10 103 -37z"/>
</g>
</svg>
